<svg xmlns="http://www.w3.org/2000/svg" viewBox="0 0 400 300"><style>.o{stroke:#5b4636;stroke-width:3;stroke-linejoin:round;stroke-linecap:round}.c{stroke:#d9622b;stroke-width:3;stroke-dasharray:7 6;fill:none;stroke-linecap:round}.t{font:600 15px "Apple SD Gothic Neo","Malgun Gothic",sans-serif;fill:#8a7f76;text-anchor:middle}.n{font:600 14px "Apple SD Gothic Neo","Malgun Gothic",sans-serif;fill:#5b4636}</style><path class="o" fill="#86b85f" d="M36,116L164,116A9,24 0 0 1 164,164L36,164A9,24 0 0 1 36,116Z"/><ellipse class="o" fill="#eef4cf" cx="164" cy="140" rx="9" ry="24"/><path class="c" d="M76,110L44,170"/><path class="c" d="M108,110L76,170"/><path class="c" d="M140,110L108,170"/><path d="M188,140H212M203,131l10,9l-10,9" fill="none" stroke="#b9a994" stroke-width="4" stroke-linecap="round" stroke-linejoin="round"/><g transform="rotate(-28 275 105)"><ellipse class="o" fill="#86b85f" cx="275" cy="105" rx="38" ry="19"/><ellipse fill="#eef4cf" cx="275" cy="105" rx="32" ry="13"/></g><g transform="rotate(-28 335 150)"><ellipse class="o" fill="#86b85f" cx="335" cy="150" rx="38" ry="19"/><ellipse fill="#eef4cf" cx="335" cy="150" rx="32" ry="13"/></g><g transform="rotate(-28 275 195)"><ellipse class="o" fill="#86b85f" cx="275" cy="195" rx="38" ry="19"/><ellipse fill="#eef4cf" cx="275" cy="195" rx="32" ry="13"/></g><text class="t" x="100" y="278">칼을 비스듬히 눕혀서</text><text class="t" x="305" y="278">길쭉한 타원</text></svg>
