<svg xmlns="http://www.w3.org/2000/svg" viewBox="0 0 400 300"><style>.o{stroke:#5b4636;stroke-width:3;stroke-linejoin:round;stroke-linecap:round}.c{stroke:#d9622b;stroke-width:3;stroke-dasharray:7 6;fill:none;stroke-linecap:round}.t{font:600 15px "Apple SD Gothic Neo","Malgun Gothic",sans-serif;fill:#8a7f76;text-anchor:middle}.n{font:600 14px "Apple SD Gothic Neo","Malgun Gothic",sans-serif;fill:#5b4636}</style><polygon class="o" fill="#fffdf6" points="36,122 66,104 178,104 148,122"/><polygon class="o" fill="#e2d8c3" points="148,122 178,104 178,156 148,174"/><rect class="o" fill="#f6f0e2" x="36" y="122" width="112" height="52"/><path class="c" d="M56,174L56,122"/><path class="c" d="M56,122L86,104"/><path class="c" d="M72,174L72,122"/><path class="c" d="M72,122L102,104"/><path class="c" d="M88,174L88,122"/><path class="c" d="M88,122L118,104"/><path class="c" d="M104,174L104,122"/><path class="c" d="M104,122L134,104"/><path class="c" d="M120,174L120,122"/><path class="c" d="M120,122L150,104"/><path class="c" d="M136,174L136,122"/><path class="c" d="M136,122L166,104"/><path d="M188,140H212M203,131l10,9l-10,9" fill="none" stroke="#b9a994" stroke-width="4" stroke-linecap="round" stroke-linejoin="round"/><polygon class="o" fill="#fffdf6" points="234,110 274,86 320,86 280,110"/><polygon class="o" fill="#e2d8c3" points="280,110 320,86 320,92 280,116"/><rect class="o" fill="#f6f0e2" x="234" y="110" width="46" height="6"/><polygon class="o" fill="#fffdf6" points="300,150 340,126 386,126 346,150"/><polygon class="o" fill="#e2d8c3" points="346,150 386,126 386,132 346,156"/><rect class="o" fill="#f6f0e2" x="300" y="150" width="46" height="6"/><polygon class="o" fill="#fffdf6" points="240,200 280,176 326,176 286,200"/><polygon class="o" fill="#e2d8c3" points="286,200 326,176 326,182 286,206"/><rect class="o" fill="#f6f0e2" x="240" y="200" width="46" height="6"/><text class="t" x="100" y="278">네모 기둥을 얇게</text><text class="t" x="305" y="278">얇은 정사각형</text></svg>
