<svg xmlns="http://www.w3.org/2000/svg" viewBox="0 0 400 300"><style>.o{stroke:#5b4636;stroke-width:3;stroke-linejoin:round;stroke-linecap:round}.c{stroke:#d9622b;stroke-width:3;stroke-dasharray:7 6;fill:none;stroke-linecap:round}.t{font:600 15px "Apple SD Gothic Neo","Malgun Gothic",sans-serif;fill:#8a7f76;text-anchor:middle}.n{font:600 14px "Apple SD Gothic Neo","Malgun Gothic",sans-serif;fill:#5b4636}</style><path class="o" fill="#9ccc7a" d="M34,125L166,125A6,15 0 0 1 166,155L34,155A6,15 0 0 1 34,125Z"/><ellipse class="o" fill="#f7fbe6" cx="166" cy="140" rx="6" ry="15"/><path class="c" d="M52,125A6,15 0 0 1 52,155"/><path class="c" d="M66,125A6,15 0 0 1 66,155"/><path class="c" d="M80,125A6,15 0 0 1 80,155"/><path class="c" d="M94,125A6,15 0 0 1 94,155"/><path class="c" d="M108,125A6,15 0 0 1 108,155"/><path class="c" d="M122,125A6,15 0 0 1 122,155"/><path class="c" d="M136,125A6,15 0 0 1 136,155"/><path class="c" d="M150,125A6,15 0 0 1 150,155"/><path d="M188,140H212M203,131l10,9l-10,9" fill="none" stroke="#b9a994" stroke-width="4" stroke-linecap="round" stroke-linejoin="round"/><circle class="o" fill="#9ccc7a" cx="250" cy="100" r="12"/><circle class="o" fill="#f7fbe6" cx="250" cy="100" r="5" stroke-width="2"/><circle class="o" fill="#9ccc7a" cx="285" cy="92" r="12"/><circle class="o" fill="#f7fbe6" cx="285" cy="92" r="5" stroke-width="2"/><circle class="o" fill="#9ccc7a" cx="322" cy="104" r="12"/><circle class="o" fill="#f7fbe6" cx="322" cy="104" r="5" stroke-width="2"/><circle class="o" fill="#9ccc7a" cx="352" cy="128" r="12"/><circle class="o" fill="#f7fbe6" cx="352" cy="128" r="5" stroke-width="2"/><circle class="o" fill="#9ccc7a" cx="262" cy="136" r="12"/><circle class="o" fill="#f7fbe6" cx="262" cy="136" r="5" stroke-width="2"/><circle class="o" fill="#9ccc7a" cx="300" cy="130" r="12"/><circle class="o" fill="#f7fbe6" cx="300" cy="130" r="5" stroke-width="2"/><circle class="o" fill="#9ccc7a" cx="330" cy="162" r="12"/><circle class="o" fill="#f7fbe6" cx="330" cy="162" r="5" stroke-width="2"/><circle class="o" fill="#9ccc7a" cx="248" cy="172" r="12"/><circle class="o" fill="#f7fbe6" cx="248" cy="172" r="5" stroke-width="2"/><circle class="o" fill="#9ccc7a" cx="284" cy="168" r="12"/><circle class="o" fill="#f7fbe6" cx="284" cy="168" r="5" stroke-width="2"/><circle class="o" fill="#9ccc7a" cx="312" cy="196" r="12"/><circle class="o" fill="#f7fbe6" cx="312" cy="196" r="5" stroke-width="2"/><circle class="o" fill="#9ccc7a" cx="270" cy="204" r="12"/><circle class="o" fill="#f7fbe6" cx="270" cy="204" r="5" stroke-width="2"/><text class="t" x="100" y="278">가늘게 촘촘히</text><text class="t" x="305" y="278">작은 동그라미</text></svg>
